<?xml version="1.0" encoding="utf-8"?>
<!-- Generator: Adobe Illustrator 16.0.0, SVG Export Plug-In . SVG Version: 6.00 Build 0)  -->
<!DOCTYPE svg PUBLIC "-//W3C//DTD SVG 1.1//EN" "http://www.w3.org/Graphics/SVG/1.1/DTD/svg11.dtd">
<svg version="1.1" xmlns="http://www.w3.org/2000/svg" xmlns:xlink="http://www.w3.org/1999/xlink" x="0px" y="0px" width="1024px"
	 height="1024px" viewBox="0 0 1024 1024" enable-background="new 0 0 1024 1024" xml:space="preserve">
<g id="Layer_2">
	<ellipse fill="#FFFFFF" cx="512.5" cy="514.13" rx="505.5" ry="506.87"/>
</g>
<g id="Layer_1">
	<path fill="#1B1F23" d="M512,0C229.12,0,0,229.12,0,512C0,738.56,146.56,929.921,350.08,997.76
		c25.6,4.479,35.199-10.88,35.199-24.32c0-12.16-0.64-52.479-0.64-95.36C256,901.76,222.72,846.72,212.48,817.921
		C206.72,803.2,181.76,757.76,160,745.6c-17.92-9.601-43.521-33.28-0.641-33.92c40.32-0.641,69.12,37.12,78.721,52.479
		c46.08,77.44,119.68,55.681,149.12,42.24c4.479-33.28,17.919-55.68,32.64-68.479c-113.92-12.801-232.96-56.96-232.96-252.801
		c0-55.68,19.84-101.76,52.479-137.6c-5.12-12.8-23.04-65.28,5.12-135.681c0,0,42.88-13.439,140.8,52.48
		c40.96-11.521,84.48-17.28,128-17.28c43.521,0,87.04,5.76,128,17.28c97.92-66.56,140.8-52.48,140.8-52.48
		c28.16,70.4,10.24,122.881,5.12,135.681c32.641,35.84,52.48,81.28,52.48,137.6c0,196.48-119.68,240-233.601,252.801
		c18.561,16,34.561,46.72,34.561,94.72c0,68.479-0.64,123.52-0.64,140.8c0,13.44,9.6,29.44,35.199,24.32
		C877.44,929.921,1024,737.921,1024,512C1024,229.12,794.88,0,512,0z"/>
</g>
</svg>
