<?xml version="1.0" encoding="utf-8"?>
<!-- Generator: Adobe Illustrator 16.0.0, SVG Export Plug-In . SVG Version: 6.00 Build 0)  -->
<!DOCTYPE svg PUBLIC "-//W3C//DTD SVG 1.1//EN" "http://www.w3.org/Graphics/SVG/1.1/DTD/svg11.dtd">
<svg version="1.1" id="Layer_1" xmlns="http://www.w3.org/2000/svg" xmlns:xlink="http://www.w3.org/1999/xlink" x="0px" y="0px"
	 width="375px" height="623.5px" viewBox="0 0 375 623.5" enable-background="new 0 0 375 623.5" xml:space="preserve">
<g transform="translate(0.000000,62.000000) scale(0.100000,-0.100000)">
	<path fill="#FF3333" d="M42.002,610c-44.004-17.998-51.001-97.998-11.001-122.998C47.998,476.001,50,461.001,50,332.998v-5625.996
		L1691.001-5295l1641.001-2.998l12.998-39.004c19.004-55,45-86.992,90.996-112.998c51.006-28.994,102.002-37.002,151.006-23.994
		c183.994,50,217.002,290,52.998,380.996c-114.004,62.998-272.998-2.998-297.002-122.002l-5-27.998H1713.999H90V358.999
		c0,110,1.001,118.999,20,123.999c37.002,10,48.999,89.004,16.001,116.001C107.998,613.999,67.002,620,42.002,610z M3600-5169.003
		c104.004-61.992,60.996-223.994-60-223.994c-90,0-149.004,102.002-104.004,179.004C3470-5155.996,3544.004-5135.996,3600-5169.003z
		"/>
</g>
</svg>
